<svg width="48" height="48" viewBox="0 0 48 48" fill="none" xmlns="http://www.w3.org/2000/svg">
<path opacity="0.3" fill-rule="evenodd" clip-rule="evenodd" d="M3.22239 16.4973C2.68892 16.6402 2.37234 17.1886 2.51528 17.722L6.13875 31.245C6.28169 31.7784 6.83002 32.095 7.36349 31.9521L9.29534 31.4344C9.82881 31.2915 10.1454 30.7432 10.0024 30.2097L6.37898 16.6867C6.23604 16.1533 5.6877 15.8367 5.15424 15.9796L3.22239 16.4973ZM41.6211 16.6868C41.764 16.1533 42.3124 15.8368 42.8458 15.9797L44.7777 16.4973C45.3111 16.6403 45.6277 17.1886 45.4848 17.7221L41.6727 31.9488C41.5298 32.4823 40.9815 32.7989 40.448 32.6559L38.5161 32.1383C37.9827 31.9953 37.6661 31.447 37.809 30.9135L41.6211 16.6868ZM19.7889 33.8845L16.2112 32.0957C18.362 27.794 23.5928 26.0504 27.8945 28.2012C29.5797 29.0439 30.9463 30.4104 31.7889 32.0957L28.2112 33.8845C27.7556 32.9733 27.0168 32.2345 26.1056 31.7789C23.7799 30.6161 20.9518 31.5588 19.7889 33.8845Z" fill="#8034FF"/>
<path fill-rule="evenodd" clip-rule="evenodd" d="M22 31C22 35.9706 17.9706 40 13 40C8.02944 40 4 35.9706 4 31C4 26.0294 8.02944 22 13 22C17.9706 22 22 26.0294 22 31ZM44 31C44 35.9706 39.9706 40 35 40C30.0294 40 26 35.9706 26 31C26 26.0294 30.0294 22 35 22C39.9706 22 44 26.0294 44 31Z" fill="#8034FF"/>
</svg>
