<svg width="48" height="48" viewBox="0 0 48 48" fill="none" xmlns="http://www.w3.org/2000/svg">
<path opacity="0.3" fill-rule="evenodd" clip-rule="evenodd" d="M22.7319 21.6451L9.99997 33.9999L9.99997 39.9999L16 39.9999L16 35.9999H19.8835L19.8835 31.9999L24 31.9999L28.3688 27.282L22.7319 21.6451Z" fill="#FFBE3D"/>
<path fill-rule="evenodd" clip-rule="evenodd" d="M40.4559 26.4558C35.7696 31.1421 28.1716 31.1421 23.4853 26.4558C18.799 21.7696 18.799 14.1716 23.4853 9.48528C28.1716 4.79899 35.7696 4.79899 40.4559 9.48528C45.1422 14.1716 45.1422 21.7696 40.4559 26.4558ZM36.364 18.364C35.1924 19.5355 33.2929 19.5355 32.1213 18.364C30.9498 17.1924 30.9498 15.2929 32.1213 14.1213C33.2929 12.9497 35.1924 12.9497 36.364 14.1213C37.5356 15.2929 37.5356 17.1924 36.364 18.364Z" fill="#FFBE3D"/>
</svg>
