<svg width="48" height="48" viewBox="0 0 48 48" fill="none" xmlns="http://www.w3.org/2000/svg">
<path opacity="0.3" fill-rule="evenodd" clip-rule="evenodd" d="M44 26.7059C44 26.316 43.684 26 43.2941 26H16C11.5817 26 8 29.5817 8 34C8 38.4183 11.5817 42 16 42H43.2941C43.684 42 44 41.684 44 41.2941V26.7059ZM18 34C18 36.2091 16.2091 38 14 38C11.7909 38 10 36.2091 10 34C10 31.7909 11.7909 30 14 30C16.2091 30 18 31.7909 18 34Z" fill="#6C5DD3"/>
<path opacity="0.3" fill-rule="evenodd" clip-rule="evenodd" d="M28.755 9.07052C28.4793 8.79485 28.0324 8.79485 27.7567 9.07052L8.45685 28.3704C5.33266 31.4946 5.33266 36.5599 8.45685 39.6841C11.581 42.8083 16.6464 42.8083 19.7706 39.6841L39.0704 20.3842C39.3461 20.1086 39.3461 19.6616 39.0704 19.386L28.755 9.07052ZM18 34C18 36.2091 16.2091 38 14 38C11.7909 38 9.99999 36.2091 9.99999 34C9.99999 31.7908 11.7909 30 14 30C16.2091 30 18 31.7908 18 34Z" fill="#6C5DD3"/>
<path fill-rule="evenodd" clip-rule="evenodd" d="M6.70588 6C6.31603 6 6 6.31603 6 6.70588V34C6 38.4183 9.58172 42 14 42C18.4183 42 22 38.4183 22 34V6.70588C22 6.31603 21.684 6 21.2941 6H6.70588ZM18 34C18 36.2091 16.2091 38 14 38C11.7909 38 10 36.2091 10 34C10 31.7909 11.7909 30 14 30C16.2091 30 18 31.7909 18 34Z" fill="#6C5DD3"/>
</svg>
